<?xml version="1.0" encoding="UTF-8" standalone="no"?>
<!-- Created with Inkscape (http://www.inkscape.org/) -->

<svg
   xmlns:dc="http://purl.org/dc/elements/1.1/"
   xmlns:cc="http://creativecommons.org/ns#"
   xmlns:rdf="http://www.w3.org/1999/02/22-rdf-syntax-ns#"
   xmlns:svg="http://www.w3.org/2000/svg"
   xmlns="http://www.w3.org/2000/svg"
   xmlns:sodipodi="http://sodipodi.sourceforge.net/DTD/sodipodi-0.dtd"
   xmlns:inkscape="http://www.inkscape.org/namespaces/inkscape"
   width="170.92278mm"
   height="120.65159mm"
   viewBox="0 0 170.92278 120.65159"
   version="1.1"
   id="svg66"
   inkscape:version="0.92.4 (5da689c313, 2019-01-14)"
   sodipodi:docname="rain.svg">
  <defs
     id="defs60" />
  <sodipodi:namedview
     id="base"
     pagecolor="#ffffff"
     bordercolor="#666666"
     borderopacity="1.0"
     inkscape:pageopacity="0.0"
     inkscape:pageshadow="2"
     inkscape:zoom="0.7"
     inkscape:cx="636.2255"
     inkscape:cy="174.4982"
     inkscape:document-units="mm"
     inkscape:current-layer="layer1"
     showgrid="false"
     fit-margin-top="0"
     fit-margin-left="0"
     fit-margin-right="0"
     fit-margin-bottom="0"
     inkscape:window-width="1280"
     inkscape:window-height="970"
     inkscape:window-x="0"
     inkscape:window-y="0"
     inkscape:window-maximized="1" />
  <metadata
     id="metadata63">
    <rdf:RDF>
      <cc:Work
         rdf:about="">
        <dc:format>image/svg+xml</dc:format>
        <dc:type
           rdf:resource="http://purl.org/dc/dcmitype/StillImage" />
        <dc:title></dc:title>
      </cc:Work>
    </rdf:RDF>
  </metadata>
  <g
     inkscape:label="Layer 1"
     inkscape:groupmode="layer"
     id="layer1"
     transform="translate(-2.2678547,-28.661392)">
    <circle
       style="fill:#b3b3b3;stroke-width:0.26458332"
       id="path68"
       cx="26.458332"
       cy="72.48214"
       r="24.190477" />
    <circle
       style="fill:#b3b3b3;stroke-width:0.26458332"
       id="path70"
       cx="61.232143"
       cy="80.797615"
       r="27.214285" />
    <circle
       style="fill:#b3b3b3;stroke-width:0.39320022"
       id="path72"
       cx="97.28611"
       cy="77.037178"
       r="28.597837" />
    <circle
       style="fill:#b3b3b3;stroke-width:0.26458332"
       id="path74"
       cx="144.05826"
       cy="67.148201"
       r="29.132378" />
    <ellipse
       style="fill:#b3b3b3;stroke-width:0.26458332"
       id="path76"
       cx="49.845764"
       cy="53.51746"
       rx="18.307962"
       ry="14.967093" />
    <ellipse
       style="fill:#b3b3b3;stroke-width:0.36683813"
       id="path81"
       cx="86.060783"
       cy="48.973877"
       rx="26.192413"
       ry="20.312485" />
    <ellipse
       style="fill:#b3b3b3;stroke-width:0.26458332"
       id="path83"
       cx="118.13313"
       cy="51.512936"
       rx="21.114292"
       ry="18.040693" />
    <path
       style="fill:#00aad4;stroke-width:0.66372049"
       d="m 37.355996,114.1177 c -1.807415,1.19352 -3.589863,2.43355 -5.503111,3.4553 -1.305638,0.72352 -2.591448,1.48921 -3.812136,2.34851 -0.954518,0.70909 -1.578292,1.85916 -1.591065,3.05451 0.01419,1.08966 0.56783,2.1567 1.462399,2.78248 0.619166,0.45842 1.411782,0.69384 2.180462,0.60552 0.806842,-0.10747 1.535641,-0.55622 2.028178,-1.19467 0.419512,-0.51599 0.638794,-1.16001 0.926149,-1.75433 0.536993,-1.22445 1.189128,-2.40114 1.584997,-3.68248 0.348799,-0.97031 0.792664,-1.90409 1.328021,-2.78527 0.480165,-0.84836 1.053075,-1.6445 1.4647,-2.5307 0.01253,-0.0436 0.09046,-0.45124 -0.06859,-0.29887 z"
       id="path78"
       inkscape:connector-curvature="0" />
    <path
       inkscape:connector-curvature="0"
       style="fill:#00aad4;stroke-width:0.66372049"
       d="m 63.331563,118.1944 c -1.807415,1.19352 -3.589866,2.43354 -5.503114,3.4553 -1.305638,0.72352 -2.591448,1.4892 -3.812136,2.34851 -0.954518,0.70909 -1.578292,1.85916 -1.591065,3.05451 0.0143,1.08966 0.56783,2.1567 1.462399,2.78248 0.619165,0.45841 1.411782,0.69384 2.180462,0.60551 0.806842,-0.10736 1.535641,-0.55622 2.028178,-1.19467 0.419512,-0.51598 0.638794,-1.16 0.926149,-1.75433 0.536993,-1.22445 1.189128,-2.40113 1.584997,-3.68247 0.348801,-0.97031 0.792664,-1.90409 1.328022,-2.78527 0.480164,-0.84837 1.053074,-1.64451 1.464699,-2.5307 0.01254,-0.0436 0.09046,-0.45124 -0.06858,-0.29887 z"
       id="path78-3" />
    <path
       inkscape:connector-curvature="0"
       style="fill:#00aad4;stroke-width:0.66372049"
       d="m 94.636143,118.14491 c -1.807415,1.19352 -3.589863,2.43354 -5.503112,3.4553 -1.305637,0.72352 -2.591447,1.4892 -3.812135,2.34851 -0.954519,0.70909 -1.578292,1.85916 -1.591066,3.05451 0.0143,1.08966 0.567831,2.1567 1.4624,2.78248 0.619165,0.45841 1.411782,0.69384 2.180461,0.60551 0.806843,-0.10736 1.535642,-0.55622 2.028178,-1.19467 0.419513,-0.51598 0.638795,-1.16 0.926149,-1.75433 0.536993,-1.22444 1.189128,-2.40113 1.584998,-3.68247 0.348799,-0.97031 0.792664,-1.90409 1.328021,-2.78527 0.480164,-0.84837 1.053074,-1.64451 1.4647,-2.5307 0.01254,-0.0436 0.09046,-0.45124 -0.06858,-0.29887 z"
       id="path78-6" />
    <path
       inkscape:connector-curvature="0"
       style="fill:#00aad4;stroke-width:0.66372049"
       d="m 125.22226,117.77154 c -1.80741,1.19352 -3.58986,2.43354 -5.50311,3.4553 -1.30564,0.72352 -2.59145,1.4892 -3.81214,2.34851 -0.95451,0.70909 -1.57829,1.85916 -1.59106,3.05451 0.0143,1.08966 0.56783,2.1567 1.4624,2.78248 0.61916,0.45841 1.41178,0.69384 2.18046,0.60551 0.80684,-0.10736 1.53564,-0.55622 2.02818,-1.19467 0.41951,-0.51598 0.63879,-1.16 0.92615,-1.75433 0.53699,-1.22445 1.18912,-2.40113 1.58499,-3.68247 0.3488,-0.97031 0.79267,-1.90409 1.32803,-2.78527 0.48016,-0.84837 1.05307,-1.64451 1.46469,-2.5307 0.0125,-0.0436 0.0905,-0.45124 -0.0686,-0.29887 z"
       id="path78-3-7" />
    <path
       inkscape:connector-curvature="0"
       style="fill:#00aad4;stroke-width:0.66372049"
       d="m 48.11512,135.15845 c -1.807415,1.19352 -3.589866,2.43354 -5.503115,3.4553 -1.305638,0.72352 -2.591448,1.4892 -3.812136,2.34851 -0.954518,0.70909 -1.578292,1.85916 -1.591065,3.05451 0.0143,1.08966 0.56783,2.1567 1.462399,2.78248 0.619165,0.45841 1.411782,0.69384 2.180463,0.60551 0.806841,-0.10736 1.53564,-0.55622 2.028177,-1.19467 0.419513,-0.51598 0.638795,-1.16 0.926149,-1.75433 0.536994,-1.22445 1.189129,-2.40113 1.584998,-3.68247 0.348801,-0.97031 0.792664,-1.90409 1.328022,-2.78527 0.480164,-0.84837 1.053074,-1.64451 1.464699,-2.5307 0.01254,-0.0436 0.09046,-0.45124 -0.06858,-0.29887 z"
       id="path78-3-5" />
    <path
       inkscape:connector-curvature="0"
       style="fill:#00aad4;stroke-width:0.66372049"
       d="m 74.573453,136.29238 c -1.807415,1.19352 -3.589866,2.43354 -5.503114,3.4553 -1.305639,0.72352 -2.591448,1.4892 -3.812136,2.34851 -0.954518,0.70909 -1.578292,1.85916 -1.591065,3.05451 0.0143,1.08966 0.56783,2.1567 1.462399,2.78248 0.619165,0.45841 1.411781,0.69384 2.180462,0.60551 0.806842,-0.10736 1.535641,-0.55622 2.028177,-1.19467 0.419513,-0.51598 0.638795,-1.16 0.92615,-1.75433 0.536993,-1.22445 1.189128,-2.40113 1.584997,-3.68247 0.348801,-0.97031 0.792664,-1.90409 1.328022,-2.78527 0.480164,-0.84837 1.053074,-1.64451 1.464699,-2.5307 0.01254,-0.0436 0.09046,-0.45124 -0.06858,-0.29887 z"
       id="path78-3-3" />
    <path
       inkscape:connector-curvature="0"
       style="fill:#00aad4;stroke-width:0.66372049"
       d="m 106.70143,137.04833 c -1.80742,1.19352 -3.58987,2.43354 -5.50312,3.4553 -1.305634,0.72352 -2.591444,1.4892 -3.812132,2.34851 -0.954518,0.70909 -1.578292,1.85916 -1.591065,3.05451 0.0143,1.08966 0.56783,2.1567 1.462399,2.78248 0.619165,0.45841 1.411782,0.69384 2.180462,0.60551 0.806846,-0.10736 1.535646,-0.55622 2.028176,-1.19467 0.41951,-0.51598 0.6388,-1.16 0.92615,-1.75433 0.53699,-1.22445 1.18913,-2.40113 1.585,-3.68247 0.3488,-0.97031 0.79266,-1.90409 1.32802,-2.78527 0.48016,-0.84837 1.05307,-1.64451 1.4647,-2.5307 0.0125,-0.0436 0.0905,-0.45124 -0.0686,-0.29887 z"
       id="path78-3-56" />
  </g>
</svg>
